<svg width="594" height="406" viewBox="0 0 594 406" fill="none" xmlns="http://www.w3.org/2000/svg">
<path d="M8.29313 365.792C8.68219 366.135 9.31095 366.059 9.6975 365.621L15.9968 358.49C16.3834 358.053 16.3813 357.42 15.9923 357.077C15.6032 356.733 14.9745 356.81 14.5879 357.248L8.98852 363.586L3.35289 358.616C2.96383 358.273 2.33507 358.349 1.94851 358.787C1.56195 359.224 1.56398 359.857 1.95304 360.2L8.29313 365.792ZM8.69992 54.3253C8.31086 53.9822 7.6821 54.0587 7.29555 54.4963L0.996234 61.6274C0.609677 62.065 0.611705 62.6979 1.00076 63.041C1.38982 63.3842 2.01858 63.3076 2.40514 62.87L8.00453 56.5313L13.6402 61.502C14.0292 61.8452 14.658 61.7686 15.0445 61.331C15.4311 60.8934 15.4291 60.2605 15.04 59.9173L8.69992 54.3253ZM9.98609 364.879L8.99304 54.9968L7.00696 55.2386L8.00001 365.121L9.98609 364.879Z" fill="#717171"/>
<path d="M65.7616 7.29289C65.3711 7.68342 65.3711 8.31658 65.7616 8.70711L72.1256 15.0711C72.5161 15.4616 73.1493 15.4616 73.5398 15.0711C73.9303 14.6805 73.9303 14.0474 73.5398 13.6569L67.883 8L73.5398 2.34315C73.9303 1.95262 73.9303 1.31946 73.5398 0.928932C73.1493 0.538408 72.5161 0.538408 72.1256 0.928932L65.7616 7.29289ZM579.238 8.70711C579.629 8.31658 579.629 7.68342 579.238 7.29289L572.874 0.928932C572.484 0.538408 571.851 0.538408 571.46 0.928932C571.07 1.31946 571.07 1.95262 571.46 2.34315L577.117 8L571.46 13.6569C571.07 14.0474 571.07 14.6805 571.46 15.0711C571.851 15.4616 572.484 15.4616 572.874 15.0711L579.238 8.70711ZM66.4688 9H578.531V7H66.4688V9Z" fill="#717171"/>
<path d="M593 221C593 322.62 481.694 405 319.674 405C157.654 405 52 322.62 52 221C52 119.38 157.654 37 319.674 37C481.694 37 593 119.38 593 221Z" fill="#F2F2F2" stroke="#717171" stroke-dasharray="40 40"/>
</svg>
