<svg width="126" height="249" viewBox="0 0 126 249" fill="none" xmlns="http://www.w3.org/2000/svg">
<path d="M4.02135 248.437C4.22904 248.902 4.83556 249.084 5.37605 248.843L14.1839 244.912C14.7244 244.671 14.9941 244.098 14.7865 243.633C14.5788 243.167 13.9723 242.986 13.4318 243.227L5.6026 246.721L2.59421 239.979C2.38652 239.514 1.78001 239.332 1.23951 239.573C0.699024 239.814 0.429232 240.387 0.636918 240.853L4.02135 248.437ZM121.911 1.4213C121.703 0.9559 121.097 0.774145 120.556 1.01534L111.749 4.94584C111.208 5.18704 110.938 5.75985 111.146 6.22525C111.354 6.69065 111.96 6.8724 112.501 6.63121L120.33 3.13743L123.338 9.87888C123.546 10.3443 124.152 10.526 124.693 10.2848C125.233 10.0436 125.503 9.47084 125.296 9.00544L121.911 1.4213ZM5.95791 248.287L121.89 2.14508L119.975 1.57097L4.04209 247.713L5.95791 248.287Z" fill="#717171"/>
</svg>
