<svg width="690" height="16" viewBox="0 0 690 16" fill="none" xmlns="http://www.w3.org/2000/svg">
<path d="M0.693406 7.29289C0.302882 7.68342 0.302882 8.31658 0.693406 8.70711L7.05737 15.0711C7.44789 15.4616 8.08106 15.4616 8.47158 15.0711C8.8621 14.6805 8.8621 14.0474 8.47158 13.6569L2.81473 8L8.47158 2.34315C8.8621 1.95262 8.8621 1.31946 8.47158 0.928932C8.08106 0.538408 7.44789 0.538408 7.05737 0.928932L0.693406 7.29289ZM689.191 8.70711C689.582 8.31658 689.582 7.68342 689.191 7.29289L682.827 0.928932C682.437 0.538408 681.803 0.538408 681.413 0.928932C681.022 1.31946 681.022 1.95262 681.413 2.34315L687.07 8L681.413 13.6569C681.022 14.0474 681.022 14.6805 681.413 15.0711C681.803 15.4616 682.437 15.4616 682.827 15.0711L689.191 8.70711ZM1.40051 9H688.484V7H1.40051V9Z" fill="#717171"/>
</svg>
