<svg width="918" height="249" viewBox="0 0 918 249" fill="none" xmlns="http://www.w3.org/2000/svg">
<path d="M113.711 1.35791C113.515 1.35791 113.337 1.47226 113.256 1.65047L103.903 22.1623C103.788 22.4136 103.899 22.7101 104.15 22.8247L85.8591 62.9385C85.6078 62.8239 85.3113 62.9347 85.1967 63.186L66.4907 104.21C66.3761 104.461 66.4869 104.757 66.7382 104.872L48.4471 144.986C48.1958 144.871 47.8992 144.982 47.7847 145.233L29.0787 186.257C28.9641 186.508 29.0749 186.805 29.3262 186.919L11.035 227.033C10.7838 226.919 10.4872 227.029 10.3727 227.281L1.01967 247.792C0.949099 247.947 0.962054 248.127 1.05406 248.27C1.14607 248.413 1.3045 248.5 1.47461 248.5H22.282C22.5581 248.5 22.782 248.276 22.782 248H63.3968C63.3968 248.276 63.6207 248.5 63.8968 248.5H105.512C105.788 248.5 106.012 248.276 106.012 248H146.626C146.626 248.276 146.85 248.5 147.126 248.5H188.741C189.017 248.5 189.241 248.276 189.241 248H229.856C229.856 248.276 230.08 248.5 230.356 248.5H271.971C272.247 248.5 272.471 248.276 272.471 248H313.086C313.086 248.276 313.309 248.5 313.586 248.5H355.2C355.477 248.5 355.7 248.276 355.7 248H396.315C396.315 248.276 396.539 248.5 396.815 248.5H438.43C438.706 248.5 438.93 248.276 438.93 248H479.545C479.545 248.276 479.769 248.5 480.045 248.5H521.66C521.936 248.5 522.16 248.276 522.16 248H562.774C562.774 248.276 562.998 248.5 563.274 248.5H604.889C605.165 248.5 605.389 248.276 605.389 248H646.004C646.004 248.276 646.228 248.5 646.504 248.5H688.119C688.395 248.5 688.619 248.276 688.619 248H729.234C729.234 248.276 729.457 248.5 729.734 248.5H771.348C771.625 248.5 771.848 248.276 771.848 248H812.463C812.463 248.276 812.687 248.5 812.963 248.5H854.578C854.854 248.5 855.078 248.276 855.078 248H895.693C895.693 248.276 895.917 248.5 896.193 248.5H917C917.167 248.5 917.322 248.417 917.415 248.279C917.508 248.14 917.526 247.965 917.463 247.811L909.08 227.299C908.976 227.043 908.684 226.921 908.428 227.025L892.042 186.927C892.298 186.823 892.42 186.531 892.316 186.275L875.551 145.252C875.446 144.996 875.155 144.873 874.899 144.978L858.513 104.88C858.768 104.775 858.891 104.484 858.786 104.228L842.021 63.2043C841.917 62.9486 841.625 62.8261 841.37 62.9306L824.983 22.8326C825.239 22.7281 825.361 22.4362 825.257 22.1806L816.874 1.66876C816.798 1.48076 816.615 1.35791 816.411 1.35791H796.892C796.616 1.35791 796.392 1.58177 796.392 1.85791H758.353C758.353 1.58177 758.129 1.35791 757.853 1.35791H718.814C718.538 1.35791 718.314 1.58177 718.314 1.85791H680.275C680.275 1.58177 680.051 1.35791 679.775 1.35791H640.736C640.46 1.35791 640.236 1.58177 640.236 1.85791H602.197C602.197 1.58177 601.974 1.35791 601.697 1.35791H562.658C562.382 1.35791 562.158 1.58177 562.158 1.85791H524.12C524.12 1.58177 523.896 1.35791 523.62 1.35791H484.581C484.304 1.35791 484.081 1.58177 484.081 1.85791H446.042C446.042 1.58177 445.818 1.35791 445.542 1.35791H406.503C406.227 1.35791 406.003 1.58177 406.003 1.85791H367.964C367.964 1.58177 367.74 1.35791 367.464 1.35791H328.425C328.149 1.35791 327.925 1.58177 327.925 1.85791H289.886C289.886 1.58177 289.662 1.35791 289.386 1.35791H250.347C250.071 1.35791 249.847 1.58177 249.847 1.85791H211.808C211.808 1.58177 211.584 1.35791 211.308 1.35791H172.269C171.993 1.35791 171.769 1.58177 171.769 1.85791H133.73C133.73 1.58177 133.506 1.35791 133.23 1.35791H113.711Z" fill="#F2F2F2" stroke="#717171" stroke-linecap="round" stroke-linejoin="round" stroke-dasharray="40 40"/>
</svg>
