<svg width="630" height="281" viewBox="0 0 630 281" fill="none" xmlns="http://www.w3.org/2000/svg">
<path d="M29 29.5C28.7239 29.5 28.5 29.7239 28.5 30V50.8333C28.5 51.1095 28.7239 51.3333 29 51.3333V92C28.7239 92 28.5 92.2239 28.5 92.5V134.167C28.5 134.443 28.7239 134.667 29 134.667V175.333C28.7239 175.333 28.5 175.557 28.5 175.833V217.5C28.5 217.776 28.7239 218 29 218V258.667C28.7239 258.667 28.5 258.891 28.5 259.167V280C28.5 280.276 28.7239 280.5 29 280.5H47.75C48.0261 280.5 48.25 280.276 48.25 280H84.75C84.75 280.276 84.9739 280.5 85.25 280.5H122.75C123.026 280.5 123.25 280.276 123.25 280H159.75C159.75 280.276 159.974 280.5 160.25 280.5H197.75C198.026 280.5 198.25 280.276 198.25 280H234.75C234.75 280.276 234.974 280.5 235.25 280.5H272.75C273.026 280.5 273.25 280.276 273.25 280H309.75C309.75 280.276 309.974 280.5 310.25 280.5H347.75C348.026 280.5 348.25 280.276 348.25 280H384.75C384.75 280.276 384.974 280.5 385.25 280.5H422.75C423.026 280.5 423.25 280.276 423.25 280H459.75C459.75 280.276 459.974 280.5 460.25 280.5H497.75C498.026 280.5 498.25 280.276 498.25 280H534.75C534.75 280.276 534.974 280.5 535.25 280.5H572.75C573.026 280.5 573.25 280.276 573.25 280H609.75C609.75 280.276 609.974 280.5 610.25 280.5H629C629.276 280.5 629.5 280.276 629.5 280V259.167C629.5 258.891 629.276 258.667 629 258.667V218C629.276 218 629.5 217.776 629.5 217.5V175.833C629.5 175.557 629.276 175.333 629 175.333V134.667C629.276 134.667 629.5 134.443 629.5 134.167V92.5C629.5 92.2238 629.276 92 629 92V51.3333C629.276 51.3333 629.5 51.1095 629.5 50.8333V30C629.5 29.7239 629.276 29.5 629 29.5H610.25C609.974 29.5 609.75 29.7239 609.75 30H573.25C573.25 29.7239 573.026 29.5 572.75 29.5H535.25C534.974 29.5 534.75 29.7239 534.75 30H498.25C498.25 29.7239 498.026 29.5 497.75 29.5H460.25C459.974 29.5 459.75 29.7239 459.75 30H423.25C423.25 29.7239 423.026 29.5 422.75 29.5H385.25C384.974 29.5 384.75 29.7239 384.75 30H348.25C348.25 29.7239 348.026 29.5 347.75 29.5H310.25C309.974 29.5 309.75 29.7239 309.75 30H273.25C273.25 29.7239 273.026 29.5 272.75 29.5H235.25C234.974 29.5 234.75 29.7239 234.75 30H198.25C198.25 29.7239 198.026 29.5 197.75 29.5H160.25C159.974 29.5 159.75 29.7239 159.75 30H123.25C123.25 29.7239 123.026 29.5 122.75 29.5H85.25C84.9739 29.5 84.75 29.7239 84.75 30H48.25C48.25 29.7239 48.0261 29.5 47.75 29.5H29Z" fill="#F2F2F2" stroke="#717171" stroke-linecap="round" stroke-linejoin="round" stroke-dasharray="40 40"/>
<line x1="28.9983" y1="2.5" x2="628.998" y2="0.500003" stroke="black"/>
<line x1="0.5" y1="30" x2="0.5" y2="280" stroke="black"/>
</svg>
