<svg width="573" height="354" viewBox="0 0 573 354" fill="none" xmlns="http://www.w3.org/2000/svg">
<path d="M1 0.5C0.723858 0.5 0.5 0.723858 0.5 1V23C0.5 23.2761 0.723858 23.5 1 23.5V66.5C0.723858 66.5 0.5 66.7239 0.5 67V111C0.5 111.276 0.723858 111.5 1 111.5V154.5C0.723858 154.5 0.5 154.724 0.5 155V199C0.5 199.276 0.723858 199.5 1 199.5V242.5C0.723858 242.5 0.5 242.724 0.5 243V287C0.5 287.276 0.723858 287.5 1 287.5V330.5C0.723858 330.5 0.5 330.724 0.5 331V353C0.5 353.276 0.723858 353.5 1 353.5H21.3929C21.669 353.5 21.8929 353.276 21.8929 353H61.6786C61.6786 353.276 61.9024 353.5 62.1786 353.5H102.964C103.24 353.5 103.464 353.276 103.464 353H143.25C143.25 353.276 143.474 353.5 143.75 353.5H184.536C184.812 353.5 185.036 353.276 185.036 353H224.821C224.821 353.276 225.045 353.5 225.321 353.5H266.107C266.383 353.5 266.607 353.276 266.607 353H306.393C306.393 353.276 306.617 353.5 306.893 353.5H347.679C347.955 353.5 348.179 353.276 348.179 353H387.964C387.964 353.276 388.188 353.5 388.464 353.5H429.25C429.526 353.5 429.75 353.276 429.75 353H469.536C469.536 353.276 469.76 353.5 470.036 353.5H510.821C511.098 353.5 511.321 353.276 511.321 353H551.107C551.107 353.276 551.331 353.5 551.607 353.5H572C572.276 353.5 572.5 353.276 572.5 353V331C572.5 330.724 572.276 330.5 572 330.5V287.5C572.276 287.5 572.5 287.276 572.5 287V243C572.5 242.724 572.276 242.5 572 242.5V199.5C572.276 199.5 572.5 199.276 572.5 199V155C572.5 154.724 572.276 154.5 572 154.5V111.5C572.276 111.5 572.5 111.276 572.5 111V67C572.5 66.7239 572.276 66.5 572 66.5V23.5C572.276 23.5 572.5 23.2761 572.5 23V1C572.5 0.723858 572.276 0.5 572 0.5H551.607C551.331 0.5 551.107 0.723858 551.107 1H511.321C511.321 0.723858 511.098 0.5 510.821 0.5H470.036C469.76 0.5 469.536 0.723858 469.536 1H429.75C429.75 0.723858 429.526 0.5 429.25 0.5H388.464C388.188 0.5 387.964 0.723858 387.964 1H348.179C348.179 0.723858 347.955 0.5 347.679 0.5H306.893C306.617 0.5 306.393 0.723858 306.393 1H266.607C266.607 0.723858 266.383 0.5 266.107 0.5H225.321C225.045 0.5 224.821 0.723858 224.821 1H185.036C185.036 0.723858 184.812 0.5 184.536 0.5H143.75C143.474 0.5 143.25 0.723858 143.25 1H103.464C103.464 0.723858 103.24 0.5 102.964 0.5H62.1786C61.9025 0.5 61.6786 0.723858 61.6786 1H21.893C21.893 0.723858 21.6691 0.5 21.393 0.5H1Z" fill="#F2F2F2" stroke="#717171" stroke-linecap="round" stroke-linejoin="round" stroke-dasharray="40 40"/>
</svg>
