<svg width="558" height="354" viewBox="0 0 558 354" fill="none" xmlns="http://www.w3.org/2000/svg">
<path d="M439.032 10.5907L439.035 10.5919C443.874 12.7685 448.882 15.0669 453.977 17.5036C454.226 17.6228 454.331 17.9213 454.212 18.1704C463.513 22.6296 473.091 27.5501 482.443 33.033C482.443 33.0329 482.444 33.0328 482.444 33.0326C482.584 32.7947 482.89 32.7153 483.128 32.8553C492.607 38.4339 501.852 44.5956 510.34 51.4464C510.555 51.6199 510.588 51.9347 510.415 52.1496C510.415 52.1497 510.414 52.1499 510.414 52.1501C518.819 58.9737 526.461 66.477 532.827 74.7642C532.828 74.7639 532.828 74.7637 532.828 74.7635C533.048 74.5962 533.362 74.6388 533.529 74.8586C536.884 79.2674 539.881 83.8985 542.443 88.7672C544.949 93.5316 547.037 98.5192 548.769 103.671C548.857 103.932 548.716 104.216 548.454 104.304C548.454 104.304 548.454 104.304 548.453 104.304C551.676 114.03 553.64 124.345 554.767 134.854C554.767 134.854 554.768 134.854 554.768 134.854C555.043 134.825 555.289 135.024 555.317 135.299C556.439 146.008 556.701 156.905 556.549 167.574C556.546 167.85 556.318 168.07 556.042 168.067C555.878 178.705 555.307 189.117 554.772 198.89C554.764 199.026 554.757 199.161 554.75 199.297C555.025 199.312 555.237 199.548 555.221 199.824C554.914 205.433 554.624 210.822 554.433 215.914C554.069 225.736 552.194 235.554 548.955 245.09C548.867 245.351 548.583 245.491 548.321 245.402C548.321 245.402 548.32 245.402 548.32 245.402C542.215 263.11 531.381 279.832 516.758 293.755C516.759 293.756 516.759 293.756 516.759 293.756C516.949 293.957 516.94 294.273 516.739 294.463C509.673 301.141 501.735 307.169 493.03 312.348M439.032 10.5907L492.774 311.918M439.032 10.5907C433.79 8.27076 428.198 6.41631 422.326 4.96265C422.058 4.8963 421.787 5.0598 421.72 5.32785M439.032 10.5907L421.72 5.32785M493.03 312.348L492.774 311.918M493.03 312.348C493.03 312.347 493.031 312.347 493.032 312.347L492.774 311.918M493.03 312.348C488.12 315.296 482.958 317.963 477.586 320.385C477.334 320.499 477.038 320.387 476.925 320.135C476.924 320.135 476.924 320.135 476.924 320.134M492.774 311.918C487.883 314.856 482.737 317.514 477.38 319.93C477.229 319.998 477.076 320.066 476.924 320.134M476.924 320.134C466.951 324.597 456.254 328.224 445.111 331.249C445.111 331.249 445.111 331.249 445.111 331.249C445.183 331.516 445.025 331.79 444.758 331.862C433.768 334.825 422.352 337.207 410.779 339.228C410.507 339.275 410.248 339.093 410.201 338.821M476.924 320.134L410.201 338.821M410.201 338.821C399.149 340.741 387.951 342.335 376.838 343.797C376.874 344.071 376.681 344.322 376.407 344.358C370.629 345.117 364.875 345.84 359.178 346.555C353.842 347.226 348.555 347.885 343.319 348.516C343.044 348.549 342.795 348.353 342.762 348.079C332.289 349.337 322.023 350.474 311.986 351.338C312.01 351.613 311.806 351.855 311.531 351.878C300.608 352.809 289.952 353.412 279.591 353.491C279.315 353.493 279.089 353.271 279.087 352.995C279.087 352.995 279.087 352.995 279.087 352.995C268.469 353.058 258.166 352.565 248.205 351.302C248.205 351.302 248.205 351.302 248.205 351.302C248.17 351.576 247.919 351.77 247.645 351.734C242.289 351.04 237.031 350.122 231.875 348.947L231.872 348.947C226.798 347.754 221.819 346.308 216.902 344.64C216.64 344.551 216.5 344.267 216.589 344.006C216.589 344.005 216.589 344.005 216.589 344.005C207.242 340.804 198.109 336.798 188.957 332.202C188.957 332.203 188.957 332.203 188.957 332.203C188.832 332.449 188.532 332.548 188.285 332.424C179.308 327.898 170.311 322.81 161.077 317.364C160.839 317.223 160.76 316.917 160.9 316.679C155.136 313.275 149.275 309.732 143.265 306.098C140.585 304.478 137.875 302.84 135.131 301.188C134.989 301.424 134.681 301.501 134.445 301.358C130.088 298.737 125.645 296.082 121.096 293.411C116.214 290.577 111.2 287.724 106.123 284.837C105.883 284.701 105.799 284.395 105.936 284.155C105.884 284.126 105.833 284.097 105.781 284.068C96.2132 278.627 86.4409 273.07 76.9455 267.31C76.8021 267.545 76.4945 267.62 76.2586 267.477C66.1736 261.347 56.4015 254.979 47.5234 248.271C47.3031 248.104 47.2594 247.791 47.4259 247.571C47.426 247.57 47.4261 247.57 47.4262 247.57C37.9891 240.406 29.5857 232.856 22.919 224.79C22.9187 224.79 22.9184 224.791 22.9181 224.791C22.7043 224.966 22.3893 224.934 22.2145 224.721C18.4201 220.082 15.1935 215.267 12.6701 210.252C10.3226 205.587 8.30401 200.52 6.64733 195.17C6.56565 194.907 6.71327 194.626 6.97706 194.545C6.97742 194.545 6.97779 194.545 6.97815 194.544C4.05188 184.939 2.29036 174.424 1.8907 163.68C1.89037 163.68 1.89004 163.68 1.88971 163.68C1.61372 163.689 1.38255 163.473 1.37337 163.197C1.01587 152.444 2.01857 141.47 4.5794 130.954C4.64473 130.685 4.9152 130.521 5.1835 130.586C5.18388 130.586 5.18425 130.586 5.18463 130.586C7.72562 120.358 11.7533 110.579 17.4502 101.881C17.4497 101.881 17.4493 101.881 17.4489 101.88C17.2188 101.728 17.1561 101.417 17.3088 101.187C20.2974 96.6851 23.7359 92.4742 27.6499 88.6431C31.5939 84.7739 35.6433 81.0945 39.7977 77.5912C40.0088 77.4131 40.3242 77.44 40.5023 77.6511C40.5024 77.6512 40.5025 77.6514 40.5026 77.6515C48.6685 70.7972 57.2396 64.621 66.2124 59.0192C66.2123 59.0191 66.2122 59.0189 66.2122 59.0188C66.0664 58.7842 66.1384 58.4759 66.3729 58.3302C75.5964 52.5986 85.2406 47.4704 95.3012 42.8336C95.5519 42.718 95.8489 42.8276 95.9645 43.0784C95.9646 43.0786 95.9646 43.0787 95.9647 43.0788C105.425 38.7382 115.254 34.8294 125.45 31.2597C125.45 31.2596 125.45 31.2595 125.45 31.2594C125.359 30.9987 125.497 30.7136 125.758 30.6227C130.865 28.8417 136.064 27.1454 141.353 25.522L141.354 25.5217C147.475 23.6575 153.993 22.1288 160.805 20.8585C161.076 20.8078 161.338 20.9869 161.388 21.2583C161.388 21.2585 161.388 21.2587 161.388 21.2589C173.518 19.0235 186.586 17.5971 200.02 16.5507C200.02 16.5507 200.02 16.5506 200.02 16.5505C199.999 16.2752 200.205 16.0348 200.48 16.0136C212.01 15.1241 223.804 14.5101 235.494 13.9014C237.117 13.8169 238.737 13.7325 240.355 13.6475C240.631 13.633 240.866 13.8448 240.881 14.1206C254.205 13.4191 267.332 12.6701 279.723 11.4695C279.696 11.1948 279.897 10.9503 280.172 10.9234C287.022 10.2518 293.641 9.44037 299.938 8.42053L299.941 8.4201C305.653 7.52674 311.461 6.64467 317.321 5.81184C317.594 5.77299 317.848 5.96312 317.886 6.23652C317.886 6.23656 317.886 6.23661 317.886 6.23665C329.099 4.64937 340.498 3.24651 351.796 2.29328C351.796 2.29318 351.796 2.29309 351.796 2.29299C351.773 2.0178 351.978 1.77615 352.253 1.75325C364.198 0.759235 376.031 0.27129 387.411 0.603903C387.688 0.61197 387.905 0.842272 387.897 1.1183C387.897 1.11848 387.897 1.11866 387.897 1.11884C399.812 1.49283 411.218 2.77537 421.72 5.32887M410.201 338.821L421.72 5.32887M421.72 5.32887C421.72 5.32853 421.72 5.32819 421.72 5.32785M421.72 5.32887L421.72 5.32785" fill="#F2F2F2" stroke="#717171" stroke-linecap="round" stroke-linejoin="round" stroke-dasharray="40 40"/>
</svg>
