<?xml version="1.0" standalone="no"?>
<svg xmlns="http://www.w3.org/2000/svg" viewBox="0 0 97.176 36" width="97.176" height="36"><g fill="#48C555" color="#48C555" transform="translate(0 4) scale(0.5384616)"><svg width="52.0" height="52.0" x="0.0" y="0.0" viewBox="0 0 52 52"><path fill="currentColor" fill-rule="evenodd" d="M21.009 26.075l-6.747 6.747a3.95 3.95 0 0 1-2.808 1.164 3.953 3.953 0 0 1-2.81-1.164L1.9 26.075a.105.105 0 0 1 0-.15l6.746-6.746a3.95 3.95 0 0 1 2.81-1.163c1.059 0 2.057.413 2.807 1.163l6.747 6.746c.008.01.03.03.03.075a.1.1 0 0 1-.03.075m4.99 3.019c.45 0 .899.152 1.264.456l.133.122 6.746 6.746a5.84 5.84 0 0 1 .176 8.075l-.176.183-6.746 6.746a1.968 1.968 0 0 1-2.659.122l-.132-.122-6.746-6.746a5.839 5.839 0 0 1-.176-8.075l.176-.183 6.746-6.746c.384-.386.89-.578 1.395-.578zm0 1.867a.1.1 0 0 0-.06.02l-.014.011-6.745 6.746a3.939 3.939 0 0 0-1.164 2.809 3.94 3.94 0 0 0 1.008 2.645l.156.164 6.745 6.746c.01.009.03.032.075.032.029 0 .05-.01.062-.02l.013-.012 6.746-6.746a3.947 3.947 0 0 0 1.165-2.81c0-.985-.357-1.915-1.008-2.644l-.156-.164-6.747-6.746a.102.102 0 0 0-.075-.03zM11.455 16.148c1.4 0 2.802.502 3.911 1.504l.218.207 6.746 6.746c.73.73.77 1.89.115 2.665l-.115.126-6.746 6.747a5.826 5.826 0 0 1-4.129 1.71 5.825 5.825 0 0 1-3.912-1.503l-.218-.207-6.746-6.747c-.73-.73-.769-1.89-.115-2.666l.115-.125 6.746-6.746a5.823 5.823 0 0 1 4.13-1.71zm29.093 0c1.401 0 2.802.502 3.911 1.504l.218.207 6.746 6.746c.73.73.768 1.89.115 2.665l-.115.126-6.746 6.747a5.826 5.826 0 0 1-4.129 1.71 5.825 5.825 0 0 1-3.911-1.503l-.218-.207-6.746-6.747a1.974 1.974 0 0 1-.115-2.666l.115-.125 6.746-6.746a5.823 5.823 0 0 1 4.13-1.71zm0 1.868c-.985 0-1.916.356-2.644 1.008l-.164.155-6.747 6.746a.108.108 0 0 0-.023.116l.023.034 6.747 6.747a3.95 3.95 0 0 0 2.808 1.164c.985 0 1.916-.358 2.644-1.008l.164-.156 6.747-6.747c.008-.008.03-.03.03-.075a.1.1 0 0 0-.018-.061l-.012-.014-6.747-6.746a3.944 3.944 0 0 0-2.808-1.163zM26 0c.505 0 1.01.192 1.396.578l6.746 6.746a5.84 5.84 0 0 1 0 8.26l-6.746 6.744c-.385.386-.89.578-1.396.578-.505 0-1.01-.192-1.395-.578l-6.747-6.745a5.842 5.842 0 0 1 0-8.26L24.605.579C24.99.192 25.495 0 26 0zm0 1.867c-.044 0-.066.024-.074.031L19.18 8.644a3.978 3.978 0 0 0 0 5.62l6.746 6.744c.007.01.03.031.074.031a.097.097 0 0 0 .076-.03l6.745-6.746a3.976 3.976 0 0 0 0-5.619l-6.745-6.746c-.01-.007-.032-.03-.076-.03z"></path></svg></g><path fill="#000" fill-rule="nonzero" d="M2.71 19.44L0 19.44L0 0L4.82 0Q6.58 0 7.62 0.64Q8.66 1.27 9.14 2.47Q9.62 3.67 9.62 5.38L9.62 5.38Q9.62 6.91 9.08 8.04Q8.54 9.17 7.49 9.78Q6.43 10.39 4.85 10.39L4.85 10.39L2.71 10.39L2.71 19.44ZM2.71 1.94L2.71 8.45L3.96 8.45Q5.14 8.45 5.81 8.18Q6.48 7.92 6.77 7.26Q7.06 6.60 7.06 5.40L7.06 5.40Q7.06 4.01 6.85 3.26Q6.65 2.52 6 2.23Q5.35 1.94 3.98 1.94L3.98 1.94L2.71 1.94ZM14.11 19.44L11.54 19.44L11.54 0L14.11 0L14.11 19.44ZM19.30 19.63L19.30 19.63Q18.48 19.63 17.86 19.16Q17.23 18.70 16.87 17.96Q16.51 17.23 16.51 16.42L16.51 16.42Q16.51 15.12 16.94 14.23Q17.38 13.34 18.13 12.73Q18.89 12.12 19.88 11.66Q20.88 11.21 21.98 10.78L21.98 10.78L21.98 9.79Q21.98 8.95 21.89 8.40Q21.79 7.85 21.49 7.57Q21.19 7.30 20.59 7.30L20.59 7.30Q20.06 7.30 19.74 7.54Q19.42 7.78 19.27 8.22Q19.13 8.66 19.13 9.26L19.13 9.26L19.13 9.96L16.58 9.86Q16.63 7.56 17.64 6.47Q18.65 5.38 20.76 5.38L20.76 5.38Q22.82 5.38 23.69 6.50Q24.55 7.63 24.55 9.77L24.55 9.77L24.55 16.10Q24.55 16.75 24.59 17.35Q24.62 17.95 24.68 18.47Q24.74 18.98 24.79 19.44L24.79 19.44L22.44 19.44Q22.37 19.06 22.26 18.47Q22.15 17.88 22.10 17.40L22.10 17.40Q21.86 18.22 21.18 18.92Q20.50 19.63 19.30 19.63ZM20.30 17.42L20.30 17.42Q20.69 17.42 21.02 17.21Q21.36 16.99 21.62 16.72Q21.89 16.44 21.98 16.27L21.98 16.27L21.98 12.34Q21.38 12.67 20.86 13.01Q20.33 13.34 19.93 13.72Q19.54 14.09 19.31 14.56Q19.08 15.02 19.08 15.62L19.08 15.62Q19.08 16.46 19.39 16.94Q19.70 17.42 20.30 17.42ZM29.59 19.44L27.02 19.44L27.02 5.57L29.59 5.57L29.59 6.94Q30.29 6.29 31.13 5.83Q31.97 5.38 32.98 5.38L32.98 5.38Q33.82 5.38 34.26 5.81Q34.70 6.24 34.88 6.89Q35.06 7.54 35.06 8.21L35.06 8.21L35.06 19.44L32.50 19.44L32.50 8.95Q32.50 8.21 32.28 7.80Q32.06 7.39 31.39 7.39L31.39 7.39Q30.96 7.39 30.49 7.64Q30.02 7.90 29.59 8.26L29.59 8.26L29.59 19.44ZM41.26 19.63L41.26 19.63Q40.18 19.63 39.52 19.22Q38.86 18.82 38.56 18.07Q38.26 17.33 38.26 16.32L38.26 16.32L38.26 7.27L36.79 7.27L36.79 5.57L38.26 5.57L38.26 1.51L40.82 1.51L40.82 5.57L43.06 5.57L43.06 7.27L40.82 7.27L40.82 16.15Q40.82 16.97 41.09 17.32Q41.35 17.66 42.10 17.66L42.10 17.66Q42.29 17.66 42.54 17.64Q42.79 17.62 43.03 17.59L43.03 17.59L43.03 19.49Q42.55 19.56 42.14 19.60Q41.74 19.63 41.26 19.63ZM48.79 19.63L48.79 19.63Q47.16 19.63 46.27 19.00Q45.38 18.36 45.04 17.12Q44.69 15.89 44.69 14.09L44.69 14.09L44.69 10.92Q44.69 9.07 45.05 7.85Q45.41 6.62 46.31 6.00Q47.21 5.38 48.79 5.38L48.79 5.38Q50.54 5.38 51.37 6.10Q52.20 6.82 52.46 8.17Q52.73 9.53 52.73 11.42L52.73 11.42L52.73 12.55L47.26 12.55L47.26 15.34Q47.26 16.18 47.41 16.70Q47.57 17.23 47.92 17.48Q48.26 17.74 48.82 17.74L48.82 17.74Q49.39 17.74 49.69 17.46Q49.99 17.18 50.10 16.67Q50.21 16.15 50.21 15.46L50.21 15.46L50.21 14.62L52.70 14.62L52.70 15.14Q52.70 17.23 51.82 18.43Q50.93 19.63 48.79 19.63ZM47.26 10.42L47.26 11.16L50.21 11.16L50.21 9.91Q50.21 9.05 50.11 8.46Q50.02 7.87 49.72 7.57Q49.42 7.27 48.77 7.27L48.77 7.27Q48.14 7.27 47.82 7.56Q47.50 7.85 47.38 8.53Q47.26 9.22 47.26 10.42L47.26 10.42ZM57.70 19.44L55.13 19.44L55.13 5.57L57.70 5.57L57.70 7.54Q58.46 6.26 59.23 5.83Q60.00 5.40 60.77 5.40L60.77 5.40Q60.86 5.40 60.95 5.40Q61.03 5.40 61.18 5.42L61.18 5.42L61.18 8.26Q60.89 8.14 60.52 8.05Q60.14 7.97 59.76 7.97L59.76 7.97Q59.16 7.97 58.67 8.24Q58.18 8.52 57.70 9.31L57.70 9.31L57.70 19.44Z" transform="translate(36, 8.28)"></path></svg>