<?xml version="1.0" standalone="no"?>
<svg xmlns="http://www.w3.org/2000/svg" viewBox="0 0 111.915 36" width="111.915" height="36"><g fill="#48C555" color="#48C555" transform="translate(0 4) scale(0.5384616)"><svg width="52.0" height="52.0" x="0.0" y="0.0" viewBox="0 0 52 52"><path fill="currentColor" fill-rule="evenodd" d="M21.009 26.075l-6.747 6.747a3.95 3.95 0 0 1-2.808 1.164 3.953 3.953 0 0 1-2.81-1.164L1.9 26.075a.105.105 0 0 1 0-.15l6.746-6.746a3.95 3.95 0 0 1 2.81-1.163c1.059 0 2.057.413 2.807 1.163l6.747 6.746c.008.01.03.03.03.075a.1.1 0 0 1-.03.075m4.99 3.019c.45 0 .899.152 1.264.456l.133.122 6.746 6.746a5.84 5.84 0 0 1 .176 8.075l-.176.183-6.746 6.746a1.968 1.968 0 0 1-2.659.122l-.132-.122-6.746-6.746a5.839 5.839 0 0 1-.176-8.075l.176-.183 6.746-6.746c.384-.386.89-.578 1.395-.578zm0 1.867a.1.1 0 0 0-.06.02l-.014.011-6.745 6.746a3.939 3.939 0 0 0-1.164 2.809 3.94 3.94 0 0 0 1.008 2.645l.156.164 6.745 6.746c.01.009.03.032.075.032.029 0 .05-.01.062-.02l.013-.012 6.746-6.746a3.947 3.947 0 0 0 1.165-2.81c0-.985-.357-1.915-1.008-2.644l-.156-.164-6.747-6.746a.102.102 0 0 0-.075-.03zM11.455 16.148c1.4 0 2.802.502 3.911 1.504l.218.207 6.746 6.746c.73.73.77 1.89.115 2.665l-.115.126-6.746 6.747a5.826 5.826 0 0 1-4.129 1.71 5.825 5.825 0 0 1-3.912-1.503l-.218-.207-6.746-6.747c-.73-.73-.769-1.89-.115-2.666l.115-.125 6.746-6.746a5.823 5.823 0 0 1 4.13-1.71zm29.093 0c1.401 0 2.802.502 3.911 1.504l.218.207 6.746 6.746c.73.73.768 1.89.115 2.665l-.115.126-6.746 6.747a5.826 5.826 0 0 1-4.129 1.71 5.825 5.825 0 0 1-3.911-1.503l-.218-.207-6.746-6.747a1.974 1.974 0 0 1-.115-2.666l.115-.125 6.746-6.746a5.823 5.823 0 0 1 4.13-1.71zm0 1.868c-.985 0-1.916.356-2.644 1.008l-.164.155-6.747 6.746a.108.108 0 0 0-.023.116l.023.034 6.747 6.747a3.95 3.95 0 0 0 2.808 1.164c.985 0 1.916-.358 2.644-1.008l.164-.156 6.747-6.747c.008-.008.03-.03.03-.075a.1.1 0 0 0-.018-.061l-.012-.014-6.747-6.746a3.944 3.944 0 0 0-2.808-1.163zM26 0c.505 0 1.01.192 1.396.578l6.746 6.746a5.84 5.84 0 0 1 0 8.26l-6.746 6.744c-.385.386-.89.578-1.396.578-.505 0-1.01-.192-1.395-.578l-6.747-6.745a5.842 5.842 0 0 1 0-8.26L24.605.579C24.99.192 25.495 0 26 0zm0 1.867c-.044 0-.066.024-.074.031L19.18 8.644a3.978 3.978 0 0 0 0 5.62l6.746 6.744c.007.01.03.031.074.031a.097.097 0 0 0 .076-.03l6.745-6.746a3.976 3.976 0 0 0 0-5.619l-6.745-6.746c-.01-.007-.032-.03-.076-.03z"></path></svg></g><path fill="#000" fill-rule="nonzero" d="M0 21.32L0 1.30L3.04 1.30Q3.61 1.30 4.29 1.35Q4.98 1.41 5.67 1.60Q6.35 1.79 6.99 2.19Q7.63 2.59 8.12 3.28Q8.61 3.96 8.91 4.99Q9.21 6.02 9.21 7.50L9.21 7.50L9.21 8.20Q9.21 9.81 8.94 10.95Q8.66 12.09 8.20 12.87Q7.75 13.65 7.14 14.12Q6.54 14.59 5.89 14.83Q5.24 15.07 4.58 15.15Q3.91 15.22 3.33 15.22L3.33 15.22L3.04 15.22L3.04 21.32L0 21.32ZM3.04 13.00L3.19 13.00Q4.01 13.00 4.57 12.76Q5.13 12.52 5.47 12.01Q5.80 11.50 5.95 10.69Q6.09 9.89 6.09 8.77L6.09 8.77L6.09 6.96Q6.09 6.07 5.96 5.42Q5.84 4.77 5.50 4.35Q5.17 3.93 4.61 3.72Q4.04 3.52 3.19 3.52L3.19 3.52L3.04 3.52L3.04 13.00ZM11.37 21.32L11.37 0L14.33 0L14.33 21.32L11.37 21.32ZM19.65 21.49L19.65 21.49Q18.90 21.49 18.32 21.19Q17.74 20.89 17.34 20.38Q16.95 19.86 16.74 19.15Q16.54 18.45 16.54 17.61L16.54 17.61Q16.54 16.62 16.78 15.84Q17.03 15.07 17.50 14.45Q17.98 13.83 18.68 13.32Q19.38 12.81 20.31 12.35L20.31 12.35Q20.75 12.13 21.31 11.90Q21.87 11.67 22.30 11.51L22.30 11.51L22.30 9.38Q22.30 8.91 22.27 8.50Q22.23 8.10 22.10 7.80Q21.96 7.50 21.69 7.33Q21.42 7.16 20.95 7.16L20.95 7.16Q20.64 7.16 20.34 7.28Q20.04 7.39 19.81 7.68Q19.58 7.96 19.45 8.43Q19.31 8.89 19.31 9.59L19.31 9.59L19.31 10.29L17.05 10.29Q16.95 9.83 16.89 9.45Q16.84 9.07 16.84 8.70L16.84 8.70Q16.84 7.79 17.15 7.10Q17.46 6.41 18.02 5.94Q18.57 5.47 19.35 5.23Q20.12 4.99 21.05 4.99L21.05 4.99Q22.25 4.99 23.05 5.26Q23.85 5.52 24.32 6.05Q24.80 6.57 24.99 7.37Q25.18 8.17 25.18 9.23L25.18 9.23L25.18 21.32L22.98 21.32L22.77 19.93Q22.29 20.63 21.49 21.06Q20.68 21.49 19.65 21.49ZM20.96 19.21L20.96 19.21Q21.34 19.21 21.70 19.01Q22.05 18.82 22.30 18.54L22.30 18.54L22.30 13.49Q22.07 13.58 21.77 13.71Q21.48 13.84 21.14 14.05L21.14 14.05Q20.82 14.25 20.52 14.53Q20.21 14.81 19.97 15.20Q19.73 15.59 19.59 16.07Q19.44 16.56 19.44 17.16L19.44 17.16Q19.44 18.08 19.80 18.64Q20.17 19.21 20.96 19.21ZM28.25 21.32L28.25 5.18L30.54 5.18L30.81 6.90L30.81 6.91Q31.16 6.36 31.56 5.99Q31.97 5.63 32.40 5.40Q32.84 5.18 33.29 5.09Q33.74 4.99 34.18 4.99L34.18 4.99Q35.60 4.99 36.37 5.98Q37.14 6.97 37.14 8.95L37.14 8.95L37.14 21.32L34.17 21.32L34.17 9.06Q34.17 7.99 33.84 7.58Q33.52 7.16 32.88 7.16L32.88 7.16Q32.44 7.16 32.00 7.45Q31.56 7.75 31.22 8.26L31.22 8.26L31.22 21.32L28.25 21.32ZM40.55 17.30L40.55 7.29L39.29 7.29L39.29 5.18L40.80 5.18L41.40 1.00L43.51 1.00L43.51 5.18L46.09 5.18L46.09 7.29L43.51 7.29L43.51 17.55Q43.51 18.08 43.61 18.40Q43.71 18.73 43.89 18.91Q44.06 19.09 44.30 19.15Q44.53 19.21 44.79 19.21L44.79 19.21Q45.22 19.21 45.56 19.10Q45.89 19.00 46.20 18.81L46.20 18.81L46.20 20.45Q45.94 20.77 45.64 20.96Q45.34 21.16 45.02 21.29Q44.71 21.41 44.38 21.46Q44.05 21.50 43.73 21.50L43.73 21.50Q43.11 21.50 42.54 21.34Q41.96 21.18 41.52 20.71Q41.07 20.25 40.81 19.43Q40.55 18.61 40.55 17.30L40.55 17.30ZM52.01 21.49L52.01 21.49Q50.96 21.49 50.16 21.11Q49.36 20.72 48.81 19.90Q48.26 19.08 47.98 17.79Q47.70 16.51 47.70 14.71L47.70 14.71L47.70 11.66Q47.70 10.13 47.92 9.03Q48.15 7.93 48.52 7.19Q48.89 6.45 49.38 6.01Q49.86 5.58 50.38 5.35Q50.89 5.12 51.40 5.06Q51.91 4.99 52.35 4.99L52.35 4.99Q53.14 4.99 53.88 5.23Q54.62 5.47 55.18 6.05Q55.75 6.63 56.08 7.61Q56.41 8.58 56.41 10.03L56.41 10.03Q56.41 10.52 56.38 11.03Q56.36 11.53 56.31 12.02Q56.26 12.50 56.19 12.96Q56.11 13.42 56.03 13.80L56.03 13.80L50.67 13.80L50.67 15.45Q50.67 16.50 50.75 17.22Q50.84 17.94 51.03 18.38Q51.22 18.82 51.56 19.01Q51.89 19.21 52.39 19.21L52.39 19.21Q52.66 19.21 52.92 19.10Q53.18 18.98 53.37 18.73Q53.57 18.47 53.68 18.04Q53.80 17.61 53.80 16.98L53.80 16.98L53.80 16.48L56.27 16.48L56.27 17.10Q56.27 19.39 55.18 20.44Q54.08 21.49 52.01 21.49ZM50.67 11.81L53.65 11.81Q53.66 11.68 53.67 11.47Q53.68 11.25 53.69 11.02Q53.70 10.78 53.70 10.55Q53.70 10.32 53.70 10.16L53.70 10.16Q53.70 8.57 53.32 7.86Q52.95 7.16 52.21 7.16L52.21 7.16Q51.82 7.16 51.53 7.34Q51.23 7.52 51.05 7.95Q50.86 8.38 50.77 9.08Q50.67 9.79 50.67 10.83L50.67 10.83L50.67 11.81ZM58.92 21.32L58.92 5.18L61.09 5.18L61.35 6.82Q61.84 5.91 62.48 5.45Q63.12 4.99 63.79 4.99L63.79 4.99Q65.06 4.99 65.67 5.78Q66.28 6.56 66.28 8.13L66.28 8.13Q66.28 8.33 66.25 8.61Q66.22 8.88 66.17 9.18Q66.12 9.48 66.04 9.78Q65.96 10.08 65.88 10.32L65.88 10.32L63.82 10.32L63.82 8.82Q63.82 8.33 63.76 8.02Q63.69 7.70 63.59 7.51Q63.48 7.31 63.34 7.24Q63.20 7.16 63.04 7.16L63.04 7.16Q62.68 7.16 62.38 7.39Q62.09 7.62 61.89 8.03L61.89 8.03L61.89 21.32L58.92 21.32ZM70.38 21.49L70.38 21.49Q69.63 21.49 69.05 21.19Q68.47 20.89 68.07 20.38Q67.68 19.86 67.47 19.15Q67.27 18.45 67.27 17.61L67.27 17.61Q67.27 16.62 67.51 15.84Q67.76 15.07 68.23 14.45Q68.71 13.83 69.41 13.32Q70.11 12.81 71.04 12.35L71.04 12.35Q71.48 12.13 72.04 11.90Q72.60 11.67 73.03 11.51L73.03 11.51L73.03 9.38Q73.03 8.91 73.00 8.50Q72.96 8.10 72.83 7.80Q72.69 7.50 72.42 7.33Q72.15 7.16 71.68 7.16L71.68 7.16Q71.37 7.16 71.07 7.28Q70.77 7.39 70.54 7.68Q70.31 7.96 70.18 8.43Q70.04 8.89 70.04 9.59L70.04 9.59L70.04 10.29L67.78 10.29Q67.68 9.83 67.62 9.45Q67.57 9.07 67.57 8.70L67.57 8.70Q67.57 7.79 67.88 7.10Q68.19 6.41 68.75 5.94Q69.30 5.47 70.08 5.23Q70.85 4.99 71.78 4.99L71.78 4.99Q72.98 4.99 73.78 5.26Q74.58 5.52 75.05 6.05Q75.53 6.57 75.72 7.37Q75.91 8.17 75.91 9.23L75.91 9.23L75.91 21.32L73.71 21.32L73.50 19.93Q73.02 20.63 72.22 21.06Q71.41 21.49 70.38 21.49ZM71.70 19.21L71.70 19.21Q72.07 19.21 72.43 19.01Q72.79 18.82 73.03 18.54L73.03 18.54L73.03 13.49Q72.80 13.58 72.50 13.71Q72.21 13.84 71.87 14.05L71.87 14.05Q71.55 14.25 71.25 14.53Q70.95 14.81 70.71 15.20Q70.46 15.59 70.32 16.07Q70.17 16.56 70.17 17.16L70.17 17.16Q70.17 18.08 70.54 18.64Q70.90 19.21 71.70 19.21Z" transform="translate(36, 7.342)"></path></svg>