<svg width="515" height="16" viewBox="0 0 515 16" fill="none" xmlns="http://www.w3.org/2000/svg">
<path d="M0.761643 7.29289C0.371119 7.68342 0.371119 8.31658 0.761643 8.70711L7.1256 15.0711C7.51613 15.4616 8.14929 15.4616 8.53982 15.0711C8.93034 14.6805 8.93034 14.0474 8.53982 13.6569L2.88296 8L8.53982 2.34315C8.93034 1.95262 8.93034 1.31946 8.53982 0.928932C8.14929 0.538408 7.51613 0.538408 7.1256 0.928932L0.761643 7.29289ZM514.238 8.70711C514.629 8.31658 514.629 7.68342 514.238 7.29289L507.874 0.928932C507.484 0.538408 506.851 0.538408 506.46 0.928932C506.07 1.31946 506.07 1.95262 506.46 2.34315L512.117 8L506.46 13.6569C506.07 14.0474 506.07 14.6805 506.46 15.0711C506.851 15.4616 507.484 15.4616 507.874 15.0711L514.238 8.70711ZM1.46875 9H513.531V7H1.46875V9Z" fill="#717171"/>
</svg>
