<svg width="17" height="313" viewBox="0 0 17 313" fill="none" xmlns="http://www.w3.org/2000/svg">
<path d="M8.29313 311.792C8.68219 312.135 9.31095 312.059 9.6975 311.621L15.9968 304.49C16.3834 304.053 16.3813 303.42 15.9923 303.077C15.6032 302.733 14.9745 302.81 14.5879 303.248L8.98852 309.586L3.35289 304.616C2.96383 304.273 2.33507 304.349 1.94851 304.787C1.56195 305.224 1.56398 305.857 1.95304 306.2L8.29313 311.792ZM8.69992 0.325339C8.31086 -0.0178136 7.6821 0.0587479 7.29555 0.496344L0.996234 7.62738C0.609677 8.06497 0.611705 8.69789 1.00076 9.04105C1.38982 9.3842 2.01858 9.30764 2.40514 8.87004L8.00453 2.53135L13.6402 7.502C14.0292 7.84515 14.658 7.76859 15.0445 7.331C15.4311 6.8934 15.4291 6.26048 15.04 5.91733L8.69992 0.325339ZM9.98609 310.879L8.99304 0.996757L7.00696 1.23859L8.00001 311.121L9.98609 310.879Z" fill="#717171"/>
</svg>
